<svg width="166" height="31" viewBox="0 0 166 31" fill="none" xmlns="http://www.w3.org/2000/svg">
<path fill-rule="evenodd" clip-rule="evenodd" d="M8.85639 30.0482L0.941011 30.3378C0.311519 30.5333 -0.230279 29.8542 0.099932 29.2838L13.8102 6.80497C14.2254 6.08762 15.3252 6.51776 15.1432 7.32655L9.34806 29.5156C9.29129 29.7683 9.10367 29.9714 8.85639 30.0482Z" fill="#1F40CB"/>
<path fill-rule="evenodd" clip-rule="evenodd" d="M16.848 8.51117L18.7497 0.555848C18.9018 -0.0802717 19.7526 -0.204505 20.0804 0.361426L31.9971 20.9411C32.4119 21.6574 31.4935 22.3967 30.8822 21.8382L17.0638 9.21408C16.8694 9.03648 16.7868 8.76728 16.848 8.51117Z" fill="#00A2ED"/>
<path fill-rule="evenodd" clip-rule="evenodd" d="M35.9366 29.902L12.0638 30.0138C11.235 30.0179 11.0511 28.8512 11.8412 28.6002L29.7754 22.8974C30.0258 22.8177 30.2997 22.88 30.4909 23.06L36.4295 28.651C36.9055 29.0992 36.5906 29.8989 35.9366 29.902Z" fill="#1F40CB"/>
<path fill-rule="evenodd" clip-rule="evenodd" d="M53.8625 11.7284C53.8625 9.98628 52.7119 8.81618 50.9735 8.81618H47.1896C47.1128 8.81618 47.0361 8.86835 47.0361 8.97219V14.4068C47.0361 14.4848 47.0873 14.5628 47.1896 14.5628H50.9735C52.7119 14.5628 53.8625 13.4186 53.8625 11.7284M56.8279 11.6503C56.8279 14.8747 54.6036 17.0069 51.2544 17.0069H47.1894C47.1126 17.0069 47.0359 17.0587 47.0359 17.1629V24.0273C47.0359 24.2874 46.8826 24.4434 46.627 24.4434H44.4794C44.2236 24.4434 44.0703 24.2874 44.0703 24.0273V6.63203C44.0703 6.37183 44.2236 6.21582 44.4794 6.21582H51.4079C54.6547 6.21582 56.8279 8.40001 56.8279 11.6503" fill="#051C2C"/>
<path fill-rule="evenodd" clip-rule="evenodd" d="M66.592 11.286C66.7967 11.39 66.8733 11.572 66.8221 11.8061L66.4131 13.9643C66.3619 14.2503 66.2086 14.3023 65.9274 14.2243C65.5949 14.1203 65.1349 14.0683 64.6235 14.1463C63.2429 14.2243 62.118 15.1864 62.118 16.7725V24.0271C62.118 24.2871 61.9645 24.4431 61.7089 24.4431H59.5612C59.3056 24.4431 59.1523 24.2871 59.1523 24.0271V11.572C59.1523 11.312 59.3056 11.156 59.5612 11.156H61.7089C61.9645 11.156 62.118 11.312 62.118 11.572V12.5861C62.118 12.7161 62.1946 12.7682 62.2713 12.6381C62.9361 11.6241 63.9075 11 65.237 11C65.8507 11 66.2598 11.13 66.592 11.286" fill="#051C2C"/>
<path fill-rule="evenodd" clip-rule="evenodd" d="M68.9727 24.0272V11.5721C68.9727 11.3123 69.126 11.1562 69.3816 11.1562H71.5292C71.785 11.1562 71.9383 11.3123 71.9383 11.5721V24.0272C71.9383 24.2872 71.785 24.4432 71.5292 24.4432H69.3816C69.126 24.4432 68.9727 24.2872 68.9727 24.0272M68.5391 7.59401C68.5391 6.50175 69.3315 5.72168 70.4566 5.72168C71.5815 5.72168 72.3485 6.50175 72.3485 7.59401C72.3485 8.71211 71.5815 9.49217 70.4566 9.49217C69.3315 9.49217 68.5391 8.71211 68.5391 7.59401" fill="#051C2C"/>
<path fill-rule="evenodd" clip-rule="evenodd" d="M74.8008 20.9068V20.7767C74.8008 20.5168 74.9542 20.3608 75.2098 20.3608H77.2552C77.5108 20.3608 77.6644 20.4388 77.6644 20.5426V20.7248C77.6644 21.5829 78.6613 22.337 80.1442 22.337C81.5247 22.337 82.4451 21.6869 82.4451 20.8288C82.4451 19.7366 80.9366 19.5547 79.2494 18.9827C77.2042 18.3586 74.9286 17.5264 74.9286 14.9782C74.9286 12.5081 76.9996 11 80.0164 11C83.1611 11 85.2321 12.6381 85.2321 14.9523C85.2321 15.1342 85.0788 15.2644 84.823 15.2644H82.8543C82.5986 15.2644 82.4451 15.2122 82.4451 15.1084V14.9523C82.4451 14.0943 81.5503 13.3662 80.0164 13.3662C78.7125 13.3662 77.7666 13.8602 77.7666 14.7963C77.7666 15.8622 79.1982 16.1224 80.9111 16.6165C83.0333 17.2405 85.411 18.0466 85.411 20.6468C85.411 23.1429 83.3147 24.5992 80.1698 24.5992C76.8973 24.5992 74.8008 23.013 74.8008 20.9068" fill="#051C2C"/>
<path fill-rule="evenodd" clip-rule="evenodd" d="M106.096 15.5248V24.0274C106.096 24.2876 105.942 24.4434 105.687 24.4434H103.565C103.309 24.4434 103.156 24.2876 103.156 24.0274V16.1489C103.156 14.5627 102.235 13.5485 100.855 13.5485C99.4739 13.5485 98.4768 14.5367 98.4768 16.1229V24.0274C98.4768 24.2876 98.3235 24.4434 98.0679 24.4434H95.9458C95.69 24.4434 95.5367 24.2876 95.5367 24.0274V16.1489C95.5367 14.5627 94.6163 13.5485 93.2103 13.5485C91.9318 13.5485 91.0371 14.3545 90.8835 15.6808V24.0274C90.8835 24.2876 90.7302 24.4434 90.4746 24.4434H88.327C88.0713 24.4434 87.918 24.2876 87.918 24.0274V11.5723C87.918 11.3124 88.0713 11.1564 88.327 11.1564H90.4746C90.7302 11.1564 90.8835 11.3124 90.8835 11.5723V12.2745C90.8835 12.4045 90.986 12.4564 91.0626 12.3265C91.8296 11.3644 92.98 10.9482 94.284 10.9482C95.9715 10.9482 97.2241 11.6503 97.9143 12.9506C97.9655 13.0546 98.0679 13.0546 98.1189 12.9244C98.9371 11.5465 100.369 10.9482 101.903 10.9482C104.511 10.9482 106.096 12.6386 106.096 15.5248" fill="#051C2C"/>
<path fill-rule="evenodd" clip-rule="evenodd" d="M116.221 11.5461V13.3921C116.221 13.6523 116.067 13.8083 115.812 13.8083H113.408C113.332 13.8083 113.255 13.8603 113.255 13.9644V24.027C113.255 24.2872 113.102 24.4433 112.846 24.4433H110.698C110.443 24.4433 110.289 24.2872 110.289 24.027V13.9644C110.289 13.8603 110.238 13.8083 110.136 13.8083H108.679C108.423 13.8083 108.27 13.6523 108.27 13.3921V11.5461C108.27 11.2861 108.423 11.1301 108.679 11.1301H110.136C110.238 11.1301 110.289 11.0781 110.289 10.9741V10.5321C110.289 7.22978 111.414 6.21569 114.968 6.2417H115.761C116.016 6.2417 116.17 6.39771 116.17 6.65756V8.26987C116.17 8.52989 116.016 8.68591 115.761 8.68591H115.198C113.715 8.68591 113.255 9.17995 113.255 10.7401V10.9741C113.255 11.0781 113.306 11.1301 113.408 11.1301H115.812C116.067 11.1301 116.221 11.2861 116.221 11.5461" fill="#051C2C"/>
<path fill-rule="evenodd" clip-rule="evenodd" d="M125.963 19.9709C126.167 19.3729 126.244 18.5668 126.244 17.7867C126.244 16.9288 126.142 16.1487 125.988 15.6027C125.605 14.3026 124.633 13.5484 123.329 13.5484C122.026 13.5484 121.08 14.3026 120.696 15.6027C120.543 16.1487 120.44 16.9288 120.44 17.7867C120.44 18.593 120.543 19.4249 120.696 19.9709C121.08 21.271 122.051 22.0511 123.381 22.0511C124.633 22.0511 125.579 21.271 125.963 19.9709M117.884 20.7251C117.603 19.893 117.449 18.8009 117.449 17.7608C117.449 16.6949 117.603 15.6028 117.858 14.7967C118.625 12.3784 120.671 10.9482 123.406 10.9482C126.014 10.9482 127.983 12.3784 128.775 14.7706C129.082 15.6028 129.236 16.6949 129.236 17.735C129.236 18.7491 129.082 19.841 128.801 20.6991C128.034 23.1693 126.014 24.6514 123.381 24.6514C120.696 24.6514 118.625 23.1693 117.884 20.7251" fill="#051C2C"/>
<path fill-rule="evenodd" clip-rule="evenodd" d="M139.487 11.286C139.691 11.39 139.768 11.572 139.717 11.8061L139.308 13.9643C139.257 14.2503 139.103 14.3023 138.822 14.2243C138.49 14.1203 138.029 14.0683 137.518 14.1463C136.137 14.2243 135.012 15.1864 135.012 16.7725V24.0271C135.012 24.2871 134.859 24.4431 134.604 24.4431H132.456C132.2 24.4431 132.047 24.2871 132.047 24.0271V11.572C132.047 11.312 132.2 11.156 132.456 11.156H134.604C134.859 11.156 135.012 11.312 135.012 11.572V12.5861C135.012 12.7161 135.089 12.7682 135.166 12.6381C135.831 11.6241 136.802 11 138.132 11C138.745 11 139.154 11.13 139.487 11.286" fill="#051C2C"/>
<path fill-rule="evenodd" clip-rule="evenodd" d="M141.456 20.8551C141.149 19.971 141.047 18.9311 141.047 17.735C141.047 16.3829 141.2 15.4206 141.456 14.6666C142.172 12.3784 144.217 10.9482 146.85 10.9482C149.586 10.9482 151.683 12.5085 152.296 14.5105C152.398 14.7967 152.424 15.0566 152.45 15.2386C152.501 15.5248 152.373 15.6546 152.117 15.7066L149.995 16.0447C149.739 16.0967 149.586 15.9667 149.535 15.7327L149.458 15.3946C149.228 14.3805 148.231 13.5485 146.85 13.5485C145.521 13.5485 144.601 14.3025 144.294 15.4468C144.14 15.9407 144.038 16.7467 144.038 17.7608C144.038 18.8269 144.14 19.581 144.268 20.075C144.601 21.2711 145.495 22.0512 146.85 22.0512C148.154 22.0512 149.151 21.3231 149.433 20.205C149.458 20.127 149.458 20.075 149.458 20.075C149.484 19.9452 149.688 19.659 149.944 19.7112L152.066 20.049C152.322 20.101 152.45 20.257 152.398 20.5172C152.373 20.6732 152.347 20.8551 152.296 21.0371C151.631 23.2733 149.484 24.6514 146.85 24.6514C144.217 24.6514 142.197 23.1693 141.456 20.8551" fill="#051C2C"/>
<path fill-rule="evenodd" clip-rule="evenodd" d="M157.743 15.3687C157.641 15.6807 157.564 16.0186 157.539 16.4608C157.513 16.5646 157.564 16.6168 157.666 16.6168H162.805C162.908 16.6168 162.959 16.5646 162.959 16.4608C162.908 16.0707 162.882 15.7587 162.805 15.5247C162.498 14.3286 161.578 13.5484 160.197 13.5484C158.868 13.5484 158.05 14.2764 157.743 15.3687M163.495 20.6732C163.649 20.4392 163.853 20.387 164.058 20.5431L165.285 21.5313C165.464 21.6873 165.541 21.8692 165.387 22.1034C164.416 23.6635 162.677 24.6514 160.427 24.6514C157.666 24.6514 155.851 23.2213 155.058 20.9593C154.726 20.0232 154.547 18.9311 154.547 17.735C154.547 16.5907 154.598 15.7588 154.828 14.9786C155.467 12.5344 157.487 10.9482 160.223 10.9482C163.649 10.9482 165.31 12.9766 165.822 16.2787C165.924 16.9289 165.975 17.657 166.001 18.4109C166.001 18.6711 165.847 18.8271 165.592 18.8271H157.666C157.564 18.8271 157.513 18.8789 157.513 18.9831C157.513 19.4511 157.564 19.841 157.666 20.127C158.024 21.3491 159.123 22.1034 160.709 22.1034C161.987 22.0512 162.933 21.5051 163.495 20.6732" fill="#051C2C"/>
</svg>
