<svg width="300" height="158" viewBox="0 0 300 158" fill="none" xmlns="http://www.w3.org/2000/svg">
<rect width="300" height="158" fill="url(#paint0_linear_1603_6008)"/>
<path fill-rule="evenodd" clip-rule="evenodd" d="M75.8564 94.0482L67.941 94.3378C67.3115 94.5333 66.7697 93.8542 67.0999 93.2838L80.8102 70.805C81.2254 70.0876 82.3252 70.5178 82.1432 71.3265L76.3481 93.5156C76.2913 93.7683 76.1037 93.9714 75.8564 94.0482Z" fill="#1F40CB"/>
<path fill-rule="evenodd" clip-rule="evenodd" d="M83.848 72.5112L85.7497 64.5558C85.9018 63.9197 86.7526 63.7955 87.0804 64.3614L98.9971 84.9411C99.4119 85.6574 98.4935 86.3967 97.8822 85.8382L84.0638 73.2141C83.8694 73.0365 83.7868 72.7673 83.848 72.5112Z" fill="#00A2ED"/>
<path fill-rule="evenodd" clip-rule="evenodd" d="M102.937 93.902L79.0638 94.0138C78.235 94.0179 78.0511 92.8512 78.8412 92.6002L96.7754 86.8974C97.0258 86.8177 97.2997 86.88 97.4909 87.06L103.429 92.651C103.905 93.0992 103.591 93.8989 102.937 93.902Z" fill="#1F40CB"/>
<path fill-rule="evenodd" clip-rule="evenodd" d="M120.862 75.7284C120.862 73.9863 119.712 72.8162 117.973 72.8162H114.19C114.113 72.8162 114.036 72.8684 114.036 72.9722V78.4068C114.036 78.4848 114.087 78.5628 114.19 78.5628H117.973C119.712 78.5628 120.862 77.4186 120.862 75.7284ZM123.828 75.6503C123.828 78.8747 121.604 81.0069 118.254 81.0069H114.189C114.113 81.0069 114.036 81.0587 114.036 81.1629V88.0273C114.036 88.2874 113.883 88.4434 113.627 88.4434H111.479C111.224 88.4434 111.07 88.2874 111.07 88.0273V70.632C111.07 70.3718 111.224 70.2158 111.479 70.2158H118.408C121.655 70.2158 123.828 72.4 123.828 75.6503Z" fill="white"/>
<path fill-rule="evenodd" clip-rule="evenodd" d="M133.592 75.286C133.797 75.39 133.873 75.572 133.822 75.8061L133.413 77.9643C133.362 78.2503 133.209 78.3023 132.927 78.2243C132.595 78.1203 132.135 78.0683 131.624 78.1463C130.243 78.2243 129.118 79.1864 129.118 80.7725V88.0271C129.118 88.2871 128.964 88.4431 128.709 88.4431H126.561C126.306 88.4431 126.152 88.2871 126.152 88.0271V75.572C126.152 75.312 126.306 75.156 126.561 75.156H128.709C128.964 75.156 129.118 75.312 129.118 75.572V76.5861C129.118 76.7161 129.195 76.7682 129.271 76.6381C129.936 75.6241 130.908 75 132.237 75C132.851 75 133.26 75.13 133.592 75.286Z" fill="white"/>
<path fill-rule="evenodd" clip-rule="evenodd" d="M135.973 88.0272V75.5721C135.973 75.3123 136.126 75.1562 136.382 75.1562H138.529C138.785 75.1562 138.938 75.3123 138.938 75.5721V88.0272C138.938 88.2872 138.785 88.4432 138.529 88.4432H136.382C136.126 88.4432 135.973 88.2872 135.973 88.0272ZM135.539 71.594C135.539 70.5017 136.332 69.7217 137.457 69.7217C138.581 69.7217 139.348 70.5017 139.348 71.594C139.348 72.7121 138.581 73.4922 137.457 73.4922C136.332 73.4922 135.539 72.7121 135.539 71.594Z" fill="white"/>
<path fill-rule="evenodd" clip-rule="evenodd" d="M141.801 84.9068V84.7767C141.801 84.5168 141.954 84.3608 142.21 84.3608H144.255C144.511 84.3608 144.664 84.4388 144.664 84.5426V84.7248C144.664 85.5829 145.661 86.337 147.144 86.337C148.525 86.337 149.445 85.6869 149.445 84.8288C149.445 83.7366 147.937 83.5547 146.249 82.9827C144.204 82.3586 141.929 81.5264 141.929 78.9782C141.929 76.5081 144 75 147.016 75C150.161 75 152.232 76.6381 152.232 78.9523C152.232 79.1342 152.079 79.2644 151.823 79.2644H149.854C149.599 79.2644 149.445 79.2122 149.445 79.1084V78.9523C149.445 78.0943 148.55 77.3662 147.016 77.3662C145.713 77.3662 144.767 77.8602 144.767 78.7963C144.767 79.8622 146.198 80.1224 147.911 80.6165C150.033 81.2405 152.411 82.0466 152.411 84.6468C152.411 87.1429 150.315 88.5992 147.17 88.5992C143.897 88.5992 141.801 87.013 141.801 84.9068Z" fill="white"/>
<path fill-rule="evenodd" clip-rule="evenodd" d="M173.096 79.5248V88.0274C173.096 88.2876 172.942 88.4434 172.687 88.4434H170.565C170.309 88.4434 170.156 88.2876 170.156 88.0274V80.1489C170.156 78.5627 169.235 77.5485 167.855 77.5485C166.474 77.5485 165.477 78.5367 165.477 80.1229V88.0274C165.477 88.2876 165.324 88.4434 165.068 88.4434H162.946C162.69 88.4434 162.537 88.2876 162.537 88.0274V80.1489C162.537 78.5627 161.616 77.5485 160.21 77.5485C158.932 77.5485 158.037 78.3545 157.884 79.6808V88.0274C157.884 88.2876 157.73 88.4434 157.475 88.4434H155.327C155.071 88.4434 154.918 88.2876 154.918 88.0274V75.5723C154.918 75.3124 155.071 75.1564 155.327 75.1564H157.475C157.73 75.1564 157.884 75.3124 157.884 75.5723V76.2745C157.884 76.4045 157.986 76.4564 158.063 76.3265C158.83 75.3644 159.98 74.9482 161.284 74.9482C162.971 74.9482 164.224 75.6503 164.914 76.9506C164.965 77.0546 165.068 77.0546 165.119 76.9244C165.937 75.5465 167.369 74.9482 168.903 74.9482C171.511 74.9482 173.096 76.6386 173.096 79.5248Z" fill="white"/>
<path fill-rule="evenodd" clip-rule="evenodd" d="M183.221 75.5461V77.3921C183.221 77.6523 183.067 77.8083 182.812 77.8083H180.408C180.332 77.8083 180.255 77.8603 180.255 77.9644V88.027C180.255 88.2872 180.102 88.4433 179.846 88.4433H177.698C177.443 88.4433 177.289 88.2872 177.289 88.027V77.9644C177.289 77.8603 177.238 77.8083 177.136 77.8083H175.679C175.423 77.8083 175.27 77.6523 175.27 77.3921V75.5461C175.27 75.2861 175.423 75.1301 175.679 75.1301H177.136C177.238 75.1301 177.289 75.0781 177.289 74.9741V74.5321C177.289 71.2298 178.414 70.2157 181.968 70.2417H182.761C183.016 70.2417 183.17 70.3977 183.17 70.6576V72.2699C183.17 72.5299 183.016 72.6859 182.761 72.6859H182.198C180.715 72.6859 180.255 73.1799 180.255 74.7401V74.9741C180.255 75.0781 180.306 75.1301 180.408 75.1301H182.812C183.067 75.1301 183.221 75.2861 183.221 75.5461Z" fill="white"/>
<path fill-rule="evenodd" clip-rule="evenodd" d="M192.963 83.9709C193.167 83.3729 193.244 82.5668 193.244 81.7867C193.244 80.9288 193.142 80.1487 192.988 79.6027C192.605 78.3026 191.633 77.5484 190.329 77.5484C189.026 77.5484 188.08 78.3026 187.696 79.6027C187.543 80.1487 187.44 80.9288 187.44 81.7867C187.44 82.593 187.543 83.4249 187.696 83.9709C188.08 85.271 189.051 86.0511 190.381 86.0511C191.633 86.0511 192.579 85.271 192.963 83.9709ZM184.884 84.7251C184.603 83.893 184.449 82.8009 184.449 81.7608C184.449 80.6949 184.603 79.6028 184.858 78.7967C185.625 76.3784 187.671 74.9482 190.406 74.9482C193.014 74.9482 194.983 76.3784 195.775 78.7706C196.082 79.6028 196.236 80.6949 196.236 81.735C196.236 82.7491 196.082 83.841 195.801 84.6991C195.034 87.1693 193.014 88.6514 190.381 88.6514C187.696 88.6514 185.625 87.1693 184.884 84.7251Z" fill="white"/>
<path fill-rule="evenodd" clip-rule="evenodd" d="M206.487 75.286C206.691 75.39 206.768 75.572 206.717 75.8061L206.308 77.9643C206.257 78.2503 206.103 78.3023 205.822 78.2243C205.49 78.1203 205.029 78.0683 204.518 78.1463C203.137 78.2243 202.012 79.1864 202.012 80.7725V88.0271C202.012 88.2871 201.859 88.4431 201.604 88.4431H199.456C199.2 88.4431 199.047 88.2871 199.047 88.0271V75.572C199.047 75.312 199.2 75.156 199.456 75.156H201.604C201.859 75.156 202.012 75.312 202.012 75.572V76.5861C202.012 76.7161 202.089 76.7682 202.166 76.6381C202.831 75.6241 203.802 75 205.132 75C205.745 75 206.154 75.13 206.487 75.286Z" fill="white"/>
<path fill-rule="evenodd" clip-rule="evenodd" d="M208.456 84.8551C208.149 83.971 208.047 82.9311 208.047 81.735C208.047 80.3829 208.2 79.4206 208.456 78.6666C209.172 76.3784 211.217 74.9482 213.85 74.9482C216.586 74.9482 218.683 76.5085 219.296 78.5105C219.398 78.7967 219.424 79.0566 219.45 79.2386C219.501 79.5248 219.373 79.6546 219.117 79.7066L216.995 80.0447C216.739 80.0967 216.586 79.9667 216.535 79.7327L216.458 79.3946C216.228 78.3805 215.231 77.5485 213.85 77.5485C212.521 77.5485 211.601 78.3025 211.294 79.4468C211.14 79.9407 211.038 80.7467 211.038 81.7608C211.038 82.8269 211.14 83.581 211.268 84.075C211.601 85.2711 212.495 86.0512 213.85 86.0512C215.154 86.0512 216.151 85.3231 216.433 84.205C216.458 84.127 216.458 84.075 216.458 84.075C216.484 83.9452 216.688 83.659 216.944 83.7112L219.066 84.049C219.322 84.101 219.45 84.257 219.398 84.5172C219.373 84.6732 219.347 84.8551 219.296 85.0371C218.631 87.2733 216.484 88.6514 213.85 88.6514C211.217 88.6514 209.197 87.1693 208.456 84.8551Z" fill="white"/>
<path fill-rule="evenodd" clip-rule="evenodd" d="M224.743 79.3687C224.641 79.6807 224.564 80.0186 224.539 80.4608C224.513 80.5646 224.564 80.6168 224.666 80.6168H229.805C229.908 80.6168 229.959 80.5646 229.959 80.4608C229.908 80.0707 229.882 79.7587 229.805 79.5247C229.498 78.3286 228.578 77.5484 227.197 77.5484C225.868 77.5484 225.05 78.2764 224.743 79.3687ZM230.495 84.6732C230.649 84.4392 230.853 84.387 231.058 84.5431L232.285 85.5313C232.464 85.6873 232.541 85.8692 232.387 86.1034C231.416 87.6635 229.677 88.6514 227.427 88.6514C224.666 88.6514 222.851 87.2213 222.058 84.9593C221.726 84.0232 221.547 82.9311 221.547 81.735C221.547 80.5907 221.598 79.7588 221.828 78.9786C222.467 76.5344 224.487 74.9482 227.223 74.9482C230.649 74.9482 232.31 76.9766 232.822 80.2787C232.924 80.9289 232.975 81.657 233.001 82.4109C233.001 82.6711 232.847 82.8271 232.592 82.8271H224.666C224.564 82.8271 224.513 82.8789 224.513 82.9831C224.513 83.4511 224.564 83.841 224.666 84.127C225.024 85.3491 226.123 86.1034 227.709 86.1034C228.987 86.0512 229.933 85.5051 230.495 84.6732Z" fill="white"/>
<defs>
<linearGradient id="paint0_linear_1603_6008" x1="300" y1="-8.4523e-06" x2="0.275795" y2="158.521" gradientUnits="userSpaceOnUse">
<stop stop-color="#030A26"/>
<stop offset="1" stop-color="#040713"/>
</linearGradient>
</defs>
</svg>